<svg width="119" height="57" viewBox="0 0 119 57" fill="none" xmlns="http://www.w3.org/2000/svg">
<path fill-rule="evenodd" clip-rule="evenodd" d="M18.5039 19.5029H11.4995L7.49699 22.5047V19.5029H5.49574C4.94311 19.5029 4.49512 19.0549 4.49512 18.5022V8.49599C4.49512 7.94336 4.94311 7.49536 5.49574 7.49536H18.5039C19.0565 7.49536 19.5045 7.94336 19.5045 8.49599V18.5022C19.5045 19.0549 19.0565 19.5029 18.5039 19.5029Z" stroke="#5E6871" stroke-width="1.5"/>
<path d="M7.49707 11.9983H16.5027" stroke="#5E6871" stroke-width="1.5"/>
<path d="M7.49707 15H14.5014" stroke="#5E6871" stroke-width="1.5"/>
<path fill-rule="evenodd" clip-rule="evenodd" d="M18.5039 49.5029H11.4995L7.49699 52.5047V49.5029H5.49574C4.94311 49.5029 4.49512 49.0549 4.49512 48.5022V38.496C4.49512 37.9434 4.94311 37.4954 5.49574 37.4954H18.5039C19.0565 37.4954 19.5045 37.9434 19.5045 38.496V48.5022C19.5045 49.0549 19.0565 49.5029 18.5039 49.5029Z" stroke="#2C6BFF" stroke-width="1.5"/>
<path d="M7.49707 41.9983H16.5027" stroke="#2C6BFF" stroke-width="1.5"/>
<path d="M7.49707 45H14.5014" stroke="#2C6BFF" stroke-width="1.5"/>
<path fill-rule="evenodd" clip-rule="evenodd" d="M42.8711 16.7812L39.7759 17.224L40.2178 14.1279L48.1778 6.16793C48.9105 5.43523 50.0984 5.43523 50.8311 6.16793C51.5638 6.90062 51.5638 8.08856 50.8311 8.82125L42.8711 16.7812Z" stroke="#2C6BFF" stroke-width="1.5"/>
<path d="M47.2935 7.05273L49.9468 9.70606" stroke="#2C6BFF" stroke-width="1.5"/>
<path d="M47.6285 16.8763V23.1302C47.6285 23.821 47.0685 24.381 46.3777 24.381H33.8699C33.1791 24.381 32.6191 23.821 32.6191 23.1302V10.6224C32.6191 9.93158 33.1791 9.37158 33.8699 9.37158H40.1238" stroke="#2C6BFF" stroke-width="1.5"/>
<path d="M66.5 10.5H77.5V22C77.5 22.8284 76.8284 23.5 76 23.5H68C67.1716 23.5 66.5 22.8284 66.5 22V10.5Z" stroke="black" stroke-opacity="0.6"/>
<path d="M65 9V7H68.5L69.5 6H74.5L75.5 7H79V9H65Z" stroke="black" stroke-opacity="0.6"/>
<line x1="94.4854" y1="22.3346" x2="109.335" y2="7.48532" stroke="#152C61" stroke-width="2" stroke-linecap="round"/>
<line x1="109.334" y1="23.0415" x2="94.4851" y2="8.19226" stroke="#152C61" stroke-width="2" stroke-linecap="round"/>
</svg>
